/* XPM */
static char *vagalume[] = {
/* columns rows colors chars-per-pixel */
"26 26 246 2",
"   c #040405",
".  c #060B0D",
"X  c #0C0C0E",
"o  c #0C1114",
"O  c #0E191B",
"+  c #101115",
"@  c #14161D",
"#  c #17181E",
"$  c #1C1C1C",
"%  c #121E21",
"&  c #1C1E24",
"*  c #1C1E29",
"=  c #162529",
"-  c #16282C",
";  c #1E2027",
":  c #1D202B",
">  c #1A2A2E",
",  c #192C31",
"<  c #1D3236",
"1  c #1D3338",
"2  c #222222",
"3  c #23252D",
"4  c #29292A",
"5  c #242731",
"6  c #252838",
"7  c #2B2D32",
"8  c #2C2E38",
"9  c #203235",
"0  c #21363C",
"q  c #223B3E",
"w  c #2F3139",
"e  c #313233",
"r  c #323F33",
"t  c #3A3C35",
"y  c #2B2F42",
"u  c #263A41",
"i  c #2C3144",
"p  c #293E45",
"a  c #2B3E49",
"s  c #333541",
"d  c #363940",
"f  c #33384F",
"g  c #3B3D43",
"h  c #3A3D4A",
"j  c #343951",
"k  c #324234",
"l  c #364839",
"z  c #264245",
"x  c #294241",
"c  c #2F5153",
"v  c #30414F",
"b  c #354C45",
"n  c #304251",
"m  c #344558",
"M  c #3B415D",
"N  c #39485F",
"B  c #315253",
"V  c #3D4A64",
"C  c #376061",
"Z  c #396161",
"A  c #44453C",
"S  c #45513B",
"D  c #4C5637",
"F  c #495538",
"G  c #545D38",
"H  c #57633A",
"J  c #5C683F",
"K  c #626B3E",
"L  c #434343",
"P  c #45474F",
"I  c #474A4B",
"U  c #494848",
"Y  c #414452",
"T  c #484C5C",
"R  c #4D5E47",
"E  c #4E505A",
"W  c #505242",
"Q  c #555555",
"!  c #55575F",
"~  c #5A5A5A",
"^  c #434C6C",
"/  c #4E5364",
"(  c #495175",
")  c #4B5378",
"_  c #555765",
"`  c #525668",
"'  c #55596C",
"]  c #5B5E67",
"[  c #595D6E",
"{  c #486252",
"}  c #556C50",
"|  c #5F7048",
" . c #59795D",
".. c #446960",
"X. c #406F6E",
"o. c #4F6670",
"O. c #4F6C75",
"+. c #43716E",
"@. c #497D7C",
"#. c #5C6169",
"$. c #527D6C",
"%. c #51757A",
"&. c #605F51",
"*. c #66685C",
"=. c #706E5C",
"-. c #767347",
";. c #74734A",
":. c #7B7B4C",
">. c #777759",
",. c #7E7C5B",
"<. c #626363",
"1. c #67686D",
"2. c #6A6A6A",
"3. c #606373",
"4. c #6F7068",
"5. c #627C73",
"6. c #717160",
"7. c #797969",
"8. c #767676",
"9. c #767778",
"0. c gray50",
"q. c #737787",
"w. c #5C8368",
"e. c #51827B",
"r. c #5B897C",
"t. c #6D824D",
"y. c #6A855C",
"u. c #6E885B",
"i. c #798249",
"p. c #7F8E4D",
"a. c #748D5A",
"s. c #7D9257",
"d. c #608469",
"f. c #6C8C67",
"g. c #6A8A69",
"h. c #668D77",
"j. c #69997E",
"k. c #789366",
"l. c #749677",
"z. c #7A9A73",
"x. c #7BA57D",
"c. c #4D8280",
"v. c #538485",
"b. c #528D8A",
"n. c #588E86",
"m. c #58948E",
"M. c #569490",
"N. c #5B9C98",
"B. c #5FA29E",
"V. c #619C93",
"C. c #65A39A",
"Z. c #6FA895",
"A. c #70A080",
"S. c #72A48B",
"D. c #817E54",
"F. c #8A894B",
"G. c #878754",
"H. c #85845A",
"J. c #898655",
"K. c #8A8952",
"L. c #8A885E",
"P. c #959552",
"I. c #9B9B5C",
"U. c #848A63",
"Y. c #839B62",
"T. c #829E75",
"R. c #928F61",
"E. c #959561",
"W. c #909D61",
"Q. c #9F9E64",
"!. c #8DA25B",
"~. c #8CA565",
"^. c #88A56F",
"/. c #86A472",
"(. c #80A27E",
"). c #8EAF79",
"_. c #92A462",
"`. c #9BA36F",
"'. c #95AF73",
"]. c #9FAB71",
"[. c #95B777",
"{. c #93B37B",
"}. c #92B97D",
"|. c #9CB670",
" X c #9FB877",
".X c #99BB7E",
"XX c #A0A674",
"oX c #A3AE71",
"OX c #A0B275",
"+X c #A8B476",
"@X c #B6B563",
"#X c #B4B46D",
"$X c #838384",
"%X c #8A8A8A",
"&X c #979797",
"*X c #9B9B9B",
"=X c #9597A1",
"-X c #84B384",
";X c #8EB982",
":X c #91BA81",
">X c #9EBF82",
",X c #A0A09C",
"<X c #ADB981",
"1X c #A3A3A4",
"2X c gray67",
"3X c #B5B5B5",
"4X c #B3B5BC",
"5X c gray75",
"6X c #BBBCC1",
"7X c #A5C185",
"8X c #ADC991",
"9X c #B4C38D",
"0X c #B0C793",
"qX c #B8D09F",
"wX c #CFCF9C",
"eX c #C6CEA6",
"rX c #CBCBA6",
"tX c #C0D2A3",
"yX c #C5D8AE",
"uX c #CBDBB3",
"iX c #D2D1A8",
"pX c #DAD9A7",
"aX c #D1DEB8",
"sX c #D5E1BE",
"dX c gray76",
"fX c #CCCCC5",
"gX c #CCCCCC",
"hX c #CECED1",
"jX c #DDDDC5",
"kX c #DADADA",
"lX c #D6E1C0",
"zX c #DCE6CC",
"xX c #E5E5C4",
"cX c #E3E6D1",
"vX c #E2E8D2",
"bX c #EBEDDA",
"nX c #E2E2E3",
"mX c #EBEFE0",
"MX c #EBEBEC",
"NX c #EDF2E5",
"BX c #F4F4E3",
"VX c #F2F4EC",
"CX c #F4F4F4",
"ZX c #F6F9F2",
"AX c #F8F9F4",
"SX c #FCFCFC",
/* pixels */
"+ + + + + + + + + + + + + + + + + + + + + + + + + + ",
"@ & ; 3 3 3 3 3 3 3 3 3 3 3 3 3 3 3 3 3 3 3 3 3 & @ ",
"* & & & & & & ; ; & & & & ; & & 8 7 $ X + & & & & * ",
"6 ; ; & ; ; ; ; ; ; ; ; ; ; 7 <.&.L e $     # & & 6 ",
"y 5 5 5 7 t l e 5 3 5 5 3 3 $X%X8.1.~ g $     3 5 y ",
"f 8 8 w W -.F.-.A 8 8 8 w 1.3X1X1X&X%X9.Q 4   # 8 j ",
"j s s h :.iXBX#X-.d s s d 1XgXdX6X6X6X1X$X~ 2 + s M ",
"^ h h I G.bXSXpXJ.U h h h hXnXkXkXkXkXhX2XD.U & h ^ ",
"( Y Y Y D.@XBXxXP.&.Y Y Y 6XCXMXMXMXCXnX5X&X<.e Y ) ",
"( T T T *.P.wXSXQ.>.E T T &XSXSXCXCXCXMXgX1X8.Y T ( ",
"^ ` / / _ ,.Q.SXrXL.<./ / ` nXSXAXCXMXnXgX2X9./ / ^ ",
"V ' ' [ ' 4.E.lXBXE.7.[ ' ' q.MXSXSXVXnXgX1X3.' ' ^ ",
"V ` O.@.c.r.z.9XSX9XU.#.` ` ` [ 4XnXVXgX,X1.] ' ` N ",
"m b.M.M.m.m.S. XVXvX:XA.v.%.o./ T ~ =.D.J.G.,.6.5.m ",
"n B.B.B.C.B.Z.;XuXSX0X-XV.B.B.B.N.(.{.tXvXlX0X.X;Xv ",
"a N.N.N.N.N.N.-X>XAXzX:XZ.N.N.N.S.}.yXSXVXSXSXNXqXp ",
"p b.b.b.b.b.b.j.).uXSX7Xx.n.b.n.(.7XSXsX[..XtXVXSXp ",
"0 @.@.@.@.@.@.@.z.|.AXlX^.h.@.r.^.aXSXOXz.l.T.[.sXq ",
", X.X.X.X.X.X.X.w.^.uXSX Xk.w.g.~.ZXzXY.d.+.$.g.Y.< ",
", Z Z C C C C Z { y._.AXbX!.a.s.eXSX<Xu.{ Z Z Z  .> ",
"= c c c c c c c c { t.OXAXvX+X<XSXcXp.} B c c c B = ",
"% z z z z z z z z x R t.].ZXSXSXbXW.| b z z z z z % ",
"O < < 1 < 1 1 < 1 1 q S K i.].`.:.| l 1 1 1 1 1 1 O ",
"o - , , , , , , , , > , k D H G S r , , , , , , - o ",
". O 1 u 1 z z 1 z 1 z q 1 z l z 1 q q q q q q 1 O . ",
". . . . . . . . . . . . . . . . . . . . . . . . . . "
};
