/* XPM */
static char *vagalume[] = {
/* columns rows colors chars-per-pixel */
"26 26 130 2",
"   c #2F3335",
".  c #303335",
"X  c #393234",
"o  c #761C1D",
"O  c #791F1F",
"+  c #6F1F20",
"@  c #721F20",
"#  c #5B2F31",
"$  c #473032",
"%  c #4B3032",
"&  c #503C3D",
"*  c #642324",
"=  c #6C2325",
"-  c #672729",
";  c #6B2628",
":  c #722425",
">  c #782224",
",  c #742729",
"<  c #722E2F",
"1  c #7F2C2C",
"2  c #602E30",
"3  c #3D3F40",
"4  c #573F40",
"5  c #7C4B4B",
"6  c #787C79",
"7  c #890B0B",
"8  c #851C1D",
"9  c #8E1919",
"0  c #9B1717",
"q  c #931B1C",
"w  c #9A1B1B",
"e  c #AB0505",
"r  c #AD0B0B",
"t  c #B00707",
"y  c #B40A0A",
"u  c #BB0D0D",
"i  c #AE1213",
"p  c #A51718",
"a  c #A11E1E",
"s  c #AB1B1B",
"d  c #B51212",
"f  c #BD1313",
"g  c #B41B1A",
"h  c #BB1A1B",
"j  c #802122",
"k  c #8B2121",
"l  c #842A2B",
"z  c #8C292A",
"x  c #912021",
"c  c #9C2323",
"v  c #9B2C2C",
"b  c #8B2F30",
"n  c #8A3435",
"m  c #9D3433",
"M  c #A52222",
"N  c #AC2525",
"B  c #A12B2C",
"V  c #AF2C2B",
"C  c firebrick",
"Z  c #BB2728",
"A  c #B32A2A",
"S  c #BC2C2C",
"D  c #BC3533",
"F  c #B93937",
"G  c #B9383A",
"H  c #C41313",
"J  c #CB1616",
"K  c #C41919",
"L  c #CB1A1A",
"P  c #D31A1A",
"I  c #DA1D1D",
"U  c #C42424",
"Y  c #CC2424",
"T  c #C32A2B",
"R  c #CC2B2B",
"E  c #D32323",
"W  c #DE2121",
"Q  c #DE292A",
"!  c #C33131",
"~  c #CB3636",
"^  c #C93738",
"/  c #C23839",
"(  c #CF3838",
")  c #E42323",
"_  c #EA2A2A",
"`  c #B5403F",
"'  c #8F5857",
"]  c #895E5C",
"[  c #A74E4C",
"{  c #B24543",
"}  c #BD4E4C",
"|  c #AD514F",
" . c #AF5654",
".. c #B25553",
"X. c #89605E",
"o. c #A6605E",
"O. c #927A77",
"+. c #A06360",
"@. c #A96D6B",
"#. c #B86965",
"$. c #AF726E",
"%. c #BE716E",
"&. c #A97571",
"*. c #B97672",
"=. c #B47B76",
"-. c #B37D7A",
";. c #C07672",
":. c #AF837E",
">. c #B5827E",
",. c #9E8782",
"<. c #90948F",
"1. c #A78480",
"2. c #B98A86",
"3. c #A3918C",
"4. c #AE908C",
"5. c #AB9994",
"6. c #B59F9A",
"7. c #B89F98",
"8. c #ACACA6",
"9. c #ABAEA8",
"0. c #B1A6A0",
"q. c #BAA6A0",
"w. c #BAADA7",
"e. c #B5AEA8",
"r. c #BBAEA8",
"t. c #B7B4AD",
"y. c #B9B2AB",
"u. c #B9B7B0",
"i. c #B7B8B1",
"p. c #BABDB6",
/* pixels */
"S ( ( ^ / G G / ^ ( ( ( ( ( ( ( ( ( ( ( ( ( ( ( ( S ",
"( _ Q T B b b v S Q _ _ _ _ _ _ _ _ _ _ _ _ _ _ _ ( ",
"~ ) U z # $ $ # l Z W ) ) ) ) ) ) ) ) ) ) ) ) ) _ ~ ",
"~ E B 2 X .   X # v E ) ) ) ) ) ) ) ) ) ) ) ) ) ) ~ ",
"! Y z % 3 6 <.6 & l U W ) ) ) ) ) ) ) ) ) ) ) ) ) ! ",
"! Y z 4 9.p.p.p.8.n U W W W W W W W W W W W W W W ! ",
"! Y c O.p.p.p.p.p.&.L I I I I I I I I I I I I I W ! ",
"! E h 4.p.p.p.p.p.2.P I I I I I I I I I I I I I W ! ",
"S I L *.p.p.p.p.p.%.P P P P P P P P P P P P P P I S ",
"S P P R w.p.p.p.e.S P P P P P P P P P P P P P P P S ",
"S P P P R ;.6.p.' s L P P P P P P L L K K L L P P S ",
"A L J J J J A p.,.x h J J J J J J K s w c a g K L A ",
"A L J J J J f 4.i.1 s H J J J J K a j ; ; , k s K A ",
"A J H H H H H | p.X.q f H H H H s j ; : > : : q h A ",
"A K H H H H H g t.5.> p f H H f q = , o.-.@.n q h A ",
"N H H H H H H f $.p.5 8 i f H i 8 ; 5.p.p.p.u. .f N ",
"N H u u u u u u C i.3.= q i d 0 : ] p.#.f D 7.p.} N ",
"N f u u u u u u u =.p.5 = 8 9 O * 5.y.d u u h q.r.N ",
"M u u u u u u u u g y.0.- * * * < p.=.u u u u F y.M ",
"M u y y y y y y y y ..p.1.@ + o +.p.` y y y y y 2.M ",
"M y y y y y y y y y y >.p.:.m [ y.7.y y y y y y ` M ",
"a y t t t t t t t t t y =.p.p.p.w.A t t t t t t y a ",
"w r e e e e e e e e e e e V ..{ r e e e e e e e r w ",
"w e e e e e e e e e e e e e e e e e e e e e e e e w ",
"w r e e e e e e e e e e e e e e e e e e e e e e r w ",
"7 w w w w w w w w w w w w w w w w w w w w w w w w 7 "
};
