<?xml version="1.0" encoding="UTF-8" standalone="no"?>
<!-- Created with Inkscape (http://www.inkscape.org/) -->
<svg
   xmlns:dc="http://purl.org/dc/elements/1.1/"
   xmlns:cc="http://creativecommons.org/ns#"
   xmlns:rdf="http://www.w3.org/1999/02/22-rdf-syntax-ns#"
   xmlns:svg="http://www.w3.org/2000/svg"
   xmlns="http://www.w3.org/2000/svg"
   xmlns:xlink="http://www.w3.org/1999/xlink"
   xmlns:sodipodi="http://sodipodi.sourceforge.net/DTD/sodipodi-0.dtd"
   xmlns:inkscape="http://www.inkscape.org/namespaces/inkscape"
   width="48"
   height="48"
   id="svg2"
   sodipodi:version="0.32"
   inkscape:version="0.46"
   version="1.0"
   sodipodi:docname="vagalume-icon-rounded.svg"
   inkscape:output_extension="org.inkscape.output.svg.inkscape"
   inkscape:export-filename="/home/surferfromzorch/Desktop/Dropbox/Vagalume/26.png"
   inkscape:export-xdpi="48.75"
   inkscape:export-ydpi="48.75">
  <sodipodi:namedview
     id="base"
     pagecolor="#ffffff"
     bordercolor="#666666"
     borderopacity="1.0"
     inkscape:pageopacity="0.0"
     inkscape:pageshadow="2"
     inkscape:zoom="5.656854"
     inkscape:cx="55.274372"
     inkscape:cy="-5.5648297"
     inkscape:document-units="px"
     inkscape:current-layer="layer6"
     showgrid="true"
     inkscape:object-paths="true"
     inkscape:object-nodes="true"
     objecttolerance="11"
     gridtolerance="11"
     guidetolerance="11"
     showguides="true"
     inkscape:guide-bbox="true"
     inkscape:showpageshadow="false"
     showborder="true">
    <inkscape:grid
       type="xygrid"
       id="grid2400"
       visible="false"
       enabled="true"
       dotted="false"
       spacingx="0.5px"
       spacingy="0.5px"
       empspacing="6" />
    <sodipodi:guide
       orientation="0,1"
       position="0,34"
       id="guide2402" />
    <sodipodi:guide
       orientation="0,1"
       position="0,8"
       id="guide2404" />
    <sodipodi:guide
       orientation="1,0"
       position="12,0"
       id="guide2406" />
    <sodipodi:guide
       orientation="0,1"
       position="0,20"
       id="guide2408" />
    <sodipodi:guide
       orientation="1,0"
       position="27,7.071"
       id="guide2410" />
    <sodipodi:guide
       orientation="1,0"
       position="38,4.546"
       id="guide2412" />
    <sodipodi:guide
       orientation="1,0"
       position="24,50.500003"
       id="guide2488" />
    <sodipodi:guide
       orientation="0,1"
       position="3.8890875,24"
       id="guide2497" />
  </sodipodi:namedview>
  <defs
     id="defs4">
    <linearGradient
       id="linearGradient5326">
      <stop
         style="stop-color:#a40000;stop-opacity:1"
         offset="0"
         id="stop5328" />
      <stop
         style="stop-color:#ef2929;stop-opacity:1"
         offset="1"
         id="stop5330" />
    </linearGradient>
    <linearGradient
       id="linearGradient5238">
      <stop
         id="stop5240"
         offset="0"
         style="stop-color:#a40000;stop-opacity:1" />
      <stop
         id="stop5242"
         offset="1"
         style="stop-color:#ef2929;stop-opacity:1" />
    </linearGradient>
    <linearGradient
       id="linearGradient5216">
      <stop
         style="stop-color:#eeeeec;stop-opacity:1"
         offset="0"
         id="stop5218" />
      <stop
         style="stop-color:#eeeeec;stop-opacity:0;"
         offset="1"
         id="stop5220" />
    </linearGradient>
    <linearGradient
       id="linearGradient5202">
      <stop
         id="stop5204"
         offset="0"
         style="stop-color:#eeeeec;stop-opacity:1;" />
      <stop
         id="stop5206"
         offset="1"
         style="stop-color:#eeeeec;stop-opacity:0;" />
    </linearGradient>
    <marker
       inkscape:stockid="DotM"
       orient="auto"
       refY="0.0"
       refX="0.0"
       id="DotM"
       style="overflow:visible">
      <path
         id="path3258"
         d="M -2.5,-1.0 C -2.5,1.7600000 -4.7400000,4.0 -7.5,4.0 C -10.260000,4.0 -12.5,1.7600000 -12.5,-1.0 C -12.5,-3.7600000 -10.260000,-6.0 -7.5,-6.0 C -4.7400000,-6.0 -2.5,-3.7600000 -2.5,-1.0 z "
         style="fill-rule:evenodd;stroke:#000000;stroke-width:1.0pt;marker-start:none;marker-end:none"
         transform="scale(0.4) translate(7.4, 1)" />
    </marker>
    <marker
       inkscape:stockid="DotL"
       orient="auto"
       refY="0.0"
       refX="0.0"
       id="DotL"
       style="overflow:visible">
      <path
         id="path3255"
         d="M -2.5,-1.0 C -2.5,1.7600000 -4.7400000,4.0 -7.5,4.0 C -10.260000,4.0 -12.5,1.7600000 -12.5,-1.0 C -12.5,-3.7600000 -10.260000,-6.0 -7.5,-6.0 C -4.7400000,-6.0 -2.5,-3.7600000 -2.5,-1.0 z "
         style="fill-rule:evenodd;stroke:#000000;stroke-width:1.0pt;marker-start:none;marker-end:none"
         transform="scale(0.8) translate(7.4, 1)" />
    </marker>
    <inkscape:perspective
       sodipodi:type="inkscape:persp3d"
       inkscape:vp_x="0 : 526.18109 : 1"
       inkscape:vp_y="0 : 1000 : 0"
       inkscape:vp_z="744.09448 : 526.18109 : 1"
       inkscape:persp3d-origin="372.04724 : 350.78739 : 1"
       id="perspective10" />
    <inkscape:perspective
       id="perspective2390"
       inkscape:persp3d-origin="372.04724 : 350.78739 : 1"
       inkscape:vp_z="744.09448 : 526.18109 : 1"
       inkscape:vp_y="0 : 1000 : 0"
       inkscape:vp_x="0 : 526.18109 : 1"
       sodipodi:type="inkscape:persp3d" />
    <marker
       inkscape:stockid="DotM0"
       orient="auto"
       refY="0.0"
       refX="0.0"
       id="DotM0"
       style="overflow:visible">
      <path
         id="path4500"
         d="M -2.5,-1.0 C -2.5,1.7600000 -4.7400000,4.0 -7.5,4.0 C -10.260000,4.0 -12.5,1.7600000 -12.5,-1.0 C -12.5,-3.7600000 -10.260000,-6.0 -7.5,-6.0 C -4.7400000,-6.0 -2.5,-3.7600000 -2.5,-1.0 z "
         style="marker-end:none;fill-rule:evenodd;marker-start:none;stroke:#edd400;stroke-width:1.0pt;fill:#edd400"
         transform="scale(0.4) translate(7.4, 1)" />
    </marker>
    <marker
       inkscape:stockid="DotM06"
       orient="auto"
       refY="0.0"
       refX="0.0"
       id="DotM06"
       style="overflow:visible">
      <path
         id="path4557"
         d="M -2.5,-1.0 C -2.5,1.7600000 -4.7400000,4.0 -7.5,4.0 C -10.260000,4.0 -12.5,1.7600000 -12.5,-1.0 C -12.5,-3.7600000 -10.260000,-6.0 -7.5,-6.0 C -4.7400000,-6.0 -2.5,-3.7600000 -2.5,-1.0 z "
         style="marker-end:none;fill-rule:evenodd;marker-start:none;stroke:#eeeeec;stroke-width:1.0pt;fill:#eeeeec"
         transform="scale(0.4) translate(7.4, 1)" />
    </marker>
    <linearGradient
       inkscape:collect="always"
       xlink:href="#linearGradient5238"
       id="linearGradient5236"
       x1="87"
       y1="48"
       x2="87"
       y2="-0.015356813"
       gradientUnits="userSpaceOnUse"
       gradientTransform="translate(-60,0)" />
    <linearGradient
       inkscape:collect="always"
       xlink:href="#linearGradient5326"
       id="linearGradient5292"
       gradientUnits="userSpaceOnUse"
       gradientTransform="translate(-59.978733,0)"
       x1="87"
       y1="48"
       x2="87"
       y2="-0.015356813" />
    <radialGradient
       inkscape:collect="always"
       xlink:href="#linearGradient5216"
       id="radialGradient5308"
       cx="32.5"
       cy="19"
       fx="32.5"
       fy="19"
       r="9"
       gradientUnits="userSpaceOnUse"
       gradientTransform="matrix(1.6666667,-1.8703704e-7,1.8703704e-7,1.6666667,-21.66667,-12.666661)" />
    <marker
       inkscape:stockid="DotM0K"
       orient="auto"
       refY="0.0"
       refX="0.0"
       id="DotM0K"
       style="overflow:visible">
      <path
         id="path3275"
         d="M -2.5,-1.0 C -2.5,1.7600000 -4.7400000,4.0 -7.5,4.0 C -10.260000,4.0 -12.5,1.7600000 -12.5,-1.0 C -12.5,-3.7600000 -10.260000,-6.0 -7.5,-6.0 C -4.7400000,-6.0 -2.5,-3.7600000 -2.5,-1.0 z "
         style="marker-end:none;fill-rule:evenodd;marker-start:none;stroke:#2e3436;stroke-width:1.0pt;fill:#2e3436"
         transform="scale(0.4) translate(7.4, 1)" />
    </marker>
    <linearGradient
       y2="-0.015356813"
       x2="87"
       y1="48"
       x1="87"
       gradientTransform="translate(-59.978733,0)"
       gradientUnits="userSpaceOnUse"
       id="linearGradient3346"
       xlink:href="#linearGradient5326"
       inkscape:collect="always" />
    <linearGradient
       y2="-0.015356813"
       x2="87"
       y1="48"
       x1="87"
       gradientTransform="matrix(4.2109738e-2,0,0,1,43.473414,0)"
       gradientUnits="userSpaceOnUse"
       id="linearGradient3385"
       xlink:href="#linearGradient5326"
       inkscape:collect="always" />
    <marker
       inkscape:stockid="DotM07"
       orient="auto"
       refY="0.0"
       refX="0.0"
       id="DotM07"
       style="overflow:visible">
      <path
         id="path3815"
         d="M -2.5,-1.0 C -2.5,1.7600000 -4.7400000,4.0 -7.5,4.0 C -10.260000,4.0 -12.5,1.7600000 -12.5,-1.0 C -12.5,-3.7600000 -10.260000,-6.0 -7.5,-6.0 C -4.7400000,-6.0 -2.5,-3.7600000 -2.5,-1.0 z "
         style="marker-end:none;fill-rule:evenodd;marker-start:none;stroke:#d3d7cf;stroke-width:1.0pt;fill:#d3d7cf"
         transform="scale(0.4) translate(7.4, 1)" />
    </marker>
    <filter
       inkscape:collect="always"
       id="filter4370"
       x="-0.1131708"
       width="1.2263416"
       y="-0.12770633"
       height="1.2554127">
      <feGaussianBlur
         inkscape:collect="always"
         stdDeviation="1.8292854"
         id="feGaussianBlur4372" />
    </filter>
    <filter
       inkscape:collect="always"
       id="filter4374">
      <feGaussianBlur
         inkscape:collect="always"
         stdDeviation="0.9206244"
         id="feGaussianBlur4376" />
    </filter>
    <filter
       inkscape:collect="always"
       id="filter4378">
      <feGaussianBlur
         inkscape:collect="always"
         stdDeviation="0.43811408"
         id="feGaussianBlur4380" />
    </filter>
    <linearGradient
       inkscape:collect="always"
       xlink:href="#linearGradient5326"
       id="linearGradient3312"
       gradientUnits="userSpaceOnUse"
       gradientTransform="translate(-60,0)"
       x1="87"
       y1="48"
       x2="87"
       y2="-0.015356813" />
    <linearGradient
       inkscape:collect="always"
       xlink:href="#linearGradient5326"
       id="linearGradient3354"
       gradientUnits="userSpaceOnUse"
       x1="87"
       y1="48"
       x2="87"
       y2="-0.015356813"
       gradientTransform="translate(20,0)" />
    <linearGradient
       inkscape:collect="always"
       xlink:href="#linearGradient5326"
       id="linearGradient3362"
       gradientUnits="userSpaceOnUse"
       x1="87"
       y1="48"
       x2="87"
       y2="-0.015356813" />
    <linearGradient
       inkscape:collect="always"
       xlink:href="#linearGradient5326"
       id="linearGradient2465"
       gradientUnits="userSpaceOnUse"
       gradientTransform="translate(-60,0)"
       x1="87"
       y1="48"
       x2="87"
       y2="-0.015356813" />
  </defs>
  <metadata
     id="metadata7">
    <rdf:RDF>
      <cc:Work
         rdf:about="">
        <dc:format>image/svg+xml</dc:format>
        <dc:type
           rdf:resource="http://purl.org/dc/dcmitype/StillImage" />
      </cc:Work>
    </rdf:RDF>
  </metadata>
  <g
     inkscape:label="base"
     inkscape:groupmode="layer"
     id="layer1"
     style="display:inline">
    <rect
       style="opacity:1;fill:url(#linearGradient2465);fill-opacity:1;stroke:none;stroke-width:1.95744729;stroke-linecap:round;stroke-miterlimit:4;stroke-dasharray:none;stroke-opacity:1;display:inline"
       id="rect2453"
       width="48"
       height="48"
       x="0"
       y="0"
       rx="5" />
  </g>
  <g
     inkscape:label="icon-raw"
     id="layer5"
     inkscape:groupmode="layer"
     style="display:none">
    <path
       inkscape:export-ydpi="89"
       inkscape:export-xdpi="89"
       style="fill:none;fill-rule:evenodd;stroke:#2e3436;stroke-width:3;stroke-linecap:butt;stroke-linejoin:miter;marker-start:url(#DotM0K);stroke-miterlimit:4;stroke-dasharray:none;stroke-opacity:1"
       d="M 14,12 C 14,12 21,38 29,38 C 37,38 33,26 40,26 C 47,26 50,38.423856 50,38.423856"
       id="path3351" />
    <path
       style="fill:none;fill-rule:evenodd;stroke:#d3d7cf;stroke-width:3;stroke-linecap:butt;stroke-linejoin:miter;marker-start:url(#DotM07);stroke-miterlimit:4;stroke-dasharray:none;stroke-opacity:1"
       d="M 12,14 C 12,14 19,40 27,40 C 35,40 31,28 38,28 C 45,28 48,40.423856 48,40.423856"
       id="path3353" />
    <path
       style="fill:none;fill-rule:evenodd;stroke:#eeeeec;stroke-width:2;stroke-linecap:butt;stroke-linejoin:miter;marker-start:url(#DotM06);stroke-miterlimit:4;stroke-dasharray:none;stroke-opacity:1"
       d="M 12,14 C 12,14 19,40 27,40 C 35,40 31,28 38,28 C 45,28 48,40.423856 48,40.423856"
       id="path3355" />
  </g>
  <g
     inkscape:label="icon"
     id="layer6"
     inkscape:groupmode="layer"
     style="display:inline">
    <g
       style="display:inline"
       id="g2457"
       transform="translate(60,0)">
      <path
         id="path2459"
         d="M -45.78125,5.125 C -46.440081,5.1041189 -47.108132,5.1937758 -47.78125,5.375 C -51.371213,6.3415286 -53.529029,10.035037 -52.5625,13.625 C -51.705384,16.808571 -48.677758,18.874056 -45.5,18.625 C -44.780054,20.754658 -43.925317,23.111184 -42.875,25.59375 C -41.474578,28.903838 -39.837095,32.213055 -37.9375,34.8125 C -36.037905,37.411945 -33.8125,39.5 -31,39.5 C -28.625,39.5 -26.777593,38.458281 -25.6875,37.03125 C -24.597407,35.604219 -24.130376,33.924682 -23.6875,32.40625 C -23.244624,30.887818 -22.820429,29.513476 -22.28125,28.6875 C -21.742071,27.861524 -21.321429,27.5 -20,27.5 C -18.693709,27.5 -17.575512,28.041472 -16.5,29.03125 C -15.55435,29.901518 -14.707563,31.106274 -14,32.375 L -14,27.3125 C -14.15028,27.151087 -14.304381,26.995016 -14.46875,26.84375 C -15.924488,25.504055 -17.806291,24.5 -20,24.5 C -22.178571,24.5 -23.882929,25.638476 -24.8125,27.0625 C -25.742071,28.486524 -26.130376,30.112182 -26.5625,31.59375 C -26.994624,33.075318 -27.465093,34.395781 -28.09375,35.21875 C -28.722407,36.041719 -29.375,36.5 -31,36.5 C -32.1875,36.5 -33.837095,35.338055 -35.5,33.0625 C -37.162905,30.786945 -38.775422,27.596162 -40.125,24.40625 C -41.13024,22.030227 -41.957708,19.768973 -42.65625,17.71875 C -40.080043,16.221423 -38.691047,13.12969 -39.5,10.125 C -40.224896,7.4325275 -42.519987,5.549802 -45.125,5.1875 C -45.342085,5.1573082 -45.56164,5.1319604 -45.78125,5.125 z"
         style="fill:#2e3436;fill-opacity:1;fill-rule:evenodd;stroke:none;stroke-width:3;stroke-linecap:butt;stroke-linejoin:miter;stroke-miterlimit:4;stroke-dasharray:none;stroke-opacity:1;display:inline;filter:url(#filter4370)" />
      <path
         id="path2461"
         d="M -47.8125,7.875 C -48.402241,7.8521364 -48.994103,7.9323065 -49.59375,8.09375 C -52.791869,8.9547821 -54.673532,12.239381 -53.8125,15.4375 C -53.067594,18.204294 -50.499451,19.999272 -47.75,19.875 C -46.994438,22.157629 -46.048699,24.819552 -44.875,27.59375 C -43.474578,30.903838 -41.837095,34.213055 -39.9375,36.8125 C -38.037905,39.411945 -35.8125,41.5 -33,41.5 C -30.625,41.5 -28.777593,40.458281 -27.6875,39.03125 C -26.597407,37.604219 -26.130376,35.924682 -25.6875,34.40625 C -25.244624,32.887818 -24.820429,31.513476 -24.28125,30.6875 C -23.742071,29.861524 -23.321429,29.5 -22,29.5 C -20.693709,29.5 -19.575512,30.041472 -18.5,31.03125 C -17.424488,32.021028 -16.479984,33.451255 -15.71875,34.90625 C -14.9309,36.412116 -14.371442,37.914417 -14,39.03125 L -14,31.875 C -14.694363,30.785552 -15.499694,29.735559 -16.46875,28.84375 C -17.924488,27.504055 -19.806291,26.5 -22,26.5 C -24.178571,26.5 -25.882929,27.638476 -26.8125,29.0625 C -27.742071,30.486524 -28.130376,32.112182 -28.5625,33.59375 C -28.994624,35.075318 -29.465093,36.395781 -30.09375,37.21875 C -30.722407,38.041719 -31.375,38.5 -33,38.5 C -34.1875,38.5 -35.837095,37.338055 -37.5,35.0625 C -39.162905,32.786945 -40.775422,29.596162 -42.125,26.40625 C -43.247587,23.752862 -44.140743,21.198783 -44.875,19 C -42.676637,17.64246 -41.544158,14.934202 -42.25,12.3125 C -42.949588,9.7140282 -45.256954,7.9740757 -47.8125,7.875 z"
         style="fill:#babdb6;fill-opacity:1;fill-rule:evenodd;stroke:none;stroke-width:3;stroke-linecap:butt;stroke-linejoin:miter;stroke-miterlimit:4;stroke-dasharray:none;stroke-opacity:1;display:inline;filter:url(#filter4374)" />
      <path
         id="path2463"
         d="M -48.28125,9.4375 C -48.57941,9.4508654 -48.888337,9.4819558 -49.1875,9.5625 C -51.580809,10.206852 -53.019353,12.700441 -52.375,15.09375 C -51.805798,17.207931 -49.79892,18.591073 -47.6875,18.4375 C -46.896031,20.886913 -45.782767,24.121415 -44.40625,27.375 C -43.014302,30.665059 -41.391396,33.985786 -39.53125,36.53125 C -37.671104,39.076714 -35.541667,41 -33,41 C -30.75,41 -29.106937,40.045104 -28.09375,38.71875 C -27.080563,37.392396 -26.597334,35.793538 -26.15625,34.28125 C -25.715166,32.768962 -25.322994,31.331901 -24.71875,30.40625 C -24.114506,29.480599 -23.464286,29 -22,29 C -20.545806,29 -19.295133,29.639403 -18.15625,30.6875 C -17.017367,31.735597 -16.028323,33.199843 -15.25,34.6875 C -14.724273,35.692354 -14.336423,36.646077 -14,37.53125 L -14,32.875 C -14.763642,31.553815 -15.670829,30.269414 -16.8125,29.21875 C -18.204867,27.937374 -19.954194,27 -22,27 C -24.035714,27 -25.510494,28.019401 -26.375,29.34375 C -27.239506,30.668099 -27.659834,32.231038 -28.09375,33.71875 C -28.527666,35.206462 -28.981937,36.607604 -29.6875,37.53125 C -30.393063,38.454896 -31.25,39 -33,39 C -34.458333,39 -36.203896,37.673286 -37.90625,35.34375 C -39.608604,33.014214 -41.235698,29.834941 -42.59375,26.625 C -43.941014,23.440558 -45.043408,20.253418 -45.8125,17.84375 C -44.075081,16.852644 -43.143827,14.769354 -43.6875,12.75 C -44.170764,10.955018 -45.669574,9.7102844 -47.40625,9.46875 C -47.695696,9.4284942 -47.98309,9.4241346 -48.28125,9.4375 z"
         style="fill:#eeeeec;fill-opacity:1;fill-rule:evenodd;stroke:none;stroke-width:2;stroke-linecap:butt;stroke-linejoin:miter;stroke-miterlimit:4;stroke-dasharray:none;stroke-opacity:1;display:inline;filter:url(#filter4378)" />
    </g>
  </g>
  <g
     inkscape:groupmode="layer"
     id="layer7"
     inkscape:label="base-outline"
     style="display:inline">
    <rect
       style="opacity:0.3;fill:none;fill-opacity:1;fill-rule:nonzero;stroke:#2e3436;stroke-width:1;marker:none;marker-start:none;marker-mid:none;marker-end:none;stroke-miterlimit:4;stroke-dasharray:none;visibility:visible;display:inline;overflow:visible;enable-background:accumulate"
       id="rect2455"
       width="47"
       height="47.000004"
       x="0.5"
       y="0.49999809"
       rx="4.5" />
    <rect
       style="opacity:0.3;fill:none;fill-opacity:1;fill-rule:nonzero;stroke:#eeeeec;stroke-width:0.99999982;marker:none;marker-start:none;marker-mid:none;marker-end:none;stroke-miterlimit:4;stroke-dasharray:none;visibility:visible;display:inline;overflow:visible;enable-background:accumulate"
       id="rect2457"
       width="45"
       height="45.000004"
       x="1.5"
       y="1.4999981"
       rx="3.5" />
  </g>
</svg>
