/* XPM */
static char *vagalume[] = {
/* columns rows colors chars-per-pixel */
"26 26 141 2",
"   c #2F3335",
".  c #303335",
"X  c #393234",
"o  c #761C1D",
"O  c #791F1F",
"+  c #6F1F20",
"@  c #721F20",
"#  c #5B2F31",
"$  c #473032",
"%  c #4B3032",
"&  c #503C3D",
"*  c #642324",
"=  c #6C2325",
"-  c #672729",
";  c #6B2628",
":  c #722425",
">  c #782224",
",  c #742729",
"<  c #722E2F",
"1  c #7F2C2C",
"2  c #602E30",
"3  c #3D3F40",
"4  c #573F40",
"5  c #7C4B4B",
"6  c #787C79",
"7  c #8E1214",
"8  c #851C1D",
"9  c #8E1919",
"0  c #911415",
"q  c #9B1717",
"w  c #931B1C",
"e  c #9A1E1F",
"r  c #AB0505",
"t  c #AD0B0B",
"y  c #B00707",
"u  c #B40A0A",
"i  c #BB0D0D",
"p  c #AE1213",
"a  c #A51718",
"s  c #A21C1D",
"d  c #AB1B1B",
"f  c #B51212",
"g  c #BD1313",
"h  c #B41B1A",
"j  c #BB1A1B",
"k  c #802122",
"l  c #8B2121",
"z  c #842A2B",
"x  c #8C292A",
"c  c #912021",
"v  c #9C2425",
"b  c #9F2929",
"n  c #8A2F31",
"m  c #9E2F30",
"M  c #8B3334",
"N  c #9D3433",
"B  c #A42C2B",
"V  c #AB2E2D",
"C  c firebrick",
"Z  c #B12827",
"A  c #BB2728",
"S  c #B22B2A",
"D  c #BD2C2B",
"F  c #AB302F",
"G  c #AD3130",
"H  c #B43433",
"J  c #BC3533",
"K  c #BB3837",
"L  c #BE3A39",
"P  c #C41313",
"I  c #CB1616",
"U  c #C41919",
"Y  c #CB1A1A",
"T  c #D31A1A",
"R  c #DA1D1D",
"E  c #C52424",
"W  c #CB2424",
"Q  c #C22C2E",
"!  c #CC2B2B",
"~  c #D02222",
"^  c #DD2121",
"/  c #DD2C2C",
"(  c #C42E30",
")  c #C63032",
"_  c #C33D3C",
"`  c #CC3F3F",
"'  c #E42323",
"]  c #E62C2C",
"[  c #EA2A2A",
"{  c #B5403F",
"}  c #C8403F",
"|  c #8F5857",
" . c #895E5C",
".. c #A74E4C",
"X. c #B24543",
"o. c #BE4647",
"O. c #BC4E4C",
"+. c #AD514F",
"@. c #AF5654",
"#. c #B25553",
"$. c #89605E",
"%. c #A6605E",
"&. c #927A77",
"*. c #A06360",
"=. c #A96D6B",
"-. c #B86965",
";. c #AF726E",
":. c #BE716E",
">. c #A97571",
",. c #B97672",
"<. c #B47B76",
"1. c #B37D7A",
"2. c #C44646",
"3. c #CC4342",
"4. c #D34646",
"5. c #E84544",
"6. c #C07672",
"7. c #AF837E",
"8. c #B5827E",
"9. c #9E8782",
"0. c #90948F",
"q. c #A78480",
"w. c #B88A86",
"e. c #A3918C",
"r. c #AE908C",
"t. c #AB9994",
"y. c #B59F9A",
"u. c #B89F98",
"i. c #ACACA6",
"p. c #ABAEA8",
"a. c #B1A6A0",
"s. c #BAA6A0",
"d. c #BAADA7",
"f. c #B5AEA8",
"g. c #BAAEA8",
"h. c #B7B4AD",
"j. c #B9B2AB",
"k. c #B9B7B0",
"l. c #B7B8B1",
"z. c #BABDB6",
"x. c None",
/* pixels */
"x.) 3.3.2.o.o.2.3.4.4.4.4.4.4.4.4.4.4.4.4.4.4.4.) x.",
"Q 5./ Q B M n m D / [ [ [ [ [ [ [ [ [ [ [ [ [ [ 5.( ",
"3.] E x # $ $ # z A ^ ' ' ' ' ' ' ' ' ' ' ' ' ' ] ` ",
"3./ B 2 X .   X # b ~ ' ' ' ' ' ' ' ' ' ' ' ' ' ' 3.",
"3.W x % 3 6 0.6 & z E ^ ' ' ' ' ' ' ' ' ' ' ' ' ' 3.",
"} E x 4 p.z.z.z.i.M E ^ ^ ^ ^ ^ ^ ^ ^ ^ ^ ^ ^ ^ ^ } ",
"_ W v &.z.z.z.z.z.>.Y R R R R R R R R R R R R R ^ _ ",
"_ ~ j r.z.z.z.z.z.w.T R R R R R R R R R R R R R R _ ",
"_ T Y ,.z.z.z.z.z.:.T T T T T T T T T T T T T T R _ ",
"_ T T ! d.z.z.z.f.D T T T T T T T T T T T T T T T _ ",
"L T T T ! 6.y.z.| d Y T T T T T T Y Y U U Y Y T T L ",
"K Y I I I I S z.9.c j I I I I I I U d e c s h U Y K ",
"K Y I I I I g r.l.1 d P I I I I U s k ; ; , l d U K ",
"K U P P P P P +.z.$.w g P P P P d k ; : > : : w j K ",
"H U P P P P P h h.t.> a g P P g w = , %.1.=.M w j H ",
"H P P P P P P g ;.z.5 8 p g P p 8 ; t.z.z.z.k.@.g H ",
"H g i i i i i i C l.e.= w p f q :  .z.-.g J u.z.O.H ",
"H g i i i i i i i <.z.5 = 8 9 O * t.j.f i i j s.g.H ",
"G i i i i i i i i h j.a.- * * * < z.<.i i i i K j.G ",
"F i u u u u u u u u #.z.q.@ + o *.z.{ u u u u u w.F ",
"V u u u u u u u u u u 8.z.7.N ..j.u.u u u u u u { V ",
"V u y y y y y y y y y u <.z.z.z.d.S y y y y y y u V ",
"B t r r r r r r r r r r r V #.X.t r r r r r r r t B ",
"B t r r r r r r r r r r r r r r r r r r r r r r t B ",
"0 Z t r r r r r r r r r r r r r r r r r r r r t Z 0 ",
"x.7 v b b b b b b b b b b b b b b b b b b b b v 7 x."
};
